<mxfile host="app.diagrams.net" modified="2023-08-02T22:34:38.089Z" agent="Mozilla/5.0 (X11; Linux x86_64) AppleWebKit/537.36 (KHTML, like Gecko) Chrome/109.0.0.0 Safari/537.36" version="21.6.6" etag="3TnjgVYpk_0pYinv-_zR" type="device">
  <diagram id="MuwQkqOiBAZG0xW1n6Gb" name="Page-1">
    <mxGraphModel dx="2599" dy="542" grid="1" gridSize="10" guides="1" tooltips="1" connect="1" arrows="1" fold="1" page="0" pageScale="1" pageWidth="850" pageHeight="1100" background="none" math="0" shadow="0">
      <root>
        <mxCell id="0" />
        <mxCell id="1" parent="0" />
        <mxCell id="t9LdDsmCiVr-6Dxy6O7Q-6" value="use" style="edgeStyle=orthogonalEdgeStyle;rounded=0;orthogonalLoop=1;jettySize=auto;html=1;" edge="1" parent="1" source="node1" target="node0">
          <mxGeometry relative="1" as="geometry" />
        </mxCell>
        <mxCell id="node1" value="&lt;p style=&quot;margin:0px;margin-top:4px;text-align:center;&quot;&gt;&lt;b&gt;Conta&lt;/b&gt;&lt;/p&gt;&lt;hr size=&quot;1&quot;/&gt;&lt;p style=&quot;margin:0 0 0 4px;line-height:1.6;&quot;&gt;+ Conta(): &lt;/p&gt;&lt;hr size=&quot;1&quot;/&gt;&lt;p style=&quot;margin:0 0 0 4px;line-height:1.6;&quot;&gt;- titularDaConta: String&lt;br/&gt;- movimentacoes: List&amp;lt;Movimentacao&amp;gt;&lt;br/&gt;- tipo: TipoConta&lt;br/&gt;- saldo: Double&lt;/p&gt;&lt;hr size=&quot;1&quot;/&gt;&lt;p style=&quot;margin:0 0 0 4px;line-height:1.6;&quot;&gt;+ getTipo(): TipoConta&lt;br/&gt;+ getTitularDaConta(): String&lt;br/&gt;+ getSaldo(): Double&lt;br/&gt;+ getMovimentacoes(): List&amp;lt;Movimentacao&amp;gt;&lt;br/&gt;+ toString(): String&lt;br/&gt;+ setTitularDaConta(String): void&lt;br/&gt;+ setTipo(TipoConta): void&lt;br/&gt;+ setSaldo(Double): void&lt;br/&gt;+ setMovimentacoes(List&amp;lt;Movimentacao&amp;gt;): void&lt;br/&gt;+ equals(Object): boolean&lt;br/&gt;# canEqual(Object): boolean&lt;br/&gt;+ hashCode(): int&lt;/p&gt;" style="verticalAlign=top;align=left;overflow=fill;fontSize=14;fontFamily=Helvetica;html=1;rounded=0;shadow=0;comic=0;labelBackgroundColor=none;strokeWidth=1;" parent="1" vertex="1">
          <mxGeometry x="750" y="750" width="338" height="424" as="geometry" />
        </mxCell>
        <mxCell id="t9LdDsmCiVr-6Dxy6O7Q-3" style="edgeStyle=orthogonalEdgeStyle;rounded=0;orthogonalLoop=1;jettySize=auto;html=1;" edge="1" parent="1" source="node2" target="node1">
          <mxGeometry relative="1" as="geometry" />
        </mxCell>
        <mxCell id="t9LdDsmCiVr-6Dxy6O7Q-5" value="use" style="edgeLabel;html=1;align=center;verticalAlign=middle;resizable=0;points=[];" vertex="1" connectable="0" parent="t9LdDsmCiVr-6Dxy6O7Q-3">
          <mxGeometry x="-0.0766" y="-4" relative="1" as="geometry">
            <mxPoint x="-1" as="offset" />
          </mxGeometry>
        </mxCell>
        <mxCell id="t9LdDsmCiVr-6Dxy6O7Q-4" value="use" style="edgeStyle=orthogonalEdgeStyle;rounded=0;orthogonalLoop=1;jettySize=auto;html=1;" edge="1" parent="1" source="node2" target="node4">
          <mxGeometry relative="1" as="geometry" />
        </mxCell>
        <mxCell id="node2" value="&lt;p style=&quot;margin:0px;margin-top:4px;text-align:center;&quot;&gt;&lt;b&gt;Controladora&lt;/b&gt;&lt;/p&gt;&lt;hr size=&quot;1&quot;/&gt;&lt;p style=&quot;margin:0 0 0 4px;line-height:1.6;&quot;&gt;+ Controladora(): &lt;/p&gt;&lt;hr size=&quot;1&quot;/&gt;&lt;p style=&quot;margin:0 0 0 4px;line-height:1.6;&quot;&gt;- conta: Conta&lt;/p&gt;&lt;hr size=&quot;1&quot;/&gt;&lt;p style=&quot;margin:0 0 0 4px;line-height:1.6;&quot;&gt;+ exibeMenu(): void&lt;/p&gt;" style="verticalAlign=top;align=left;overflow=fill;fontSize=14;fontFamily=Helvetica;html=1;rounded=0;shadow=0;comic=0;labelBackgroundColor=none;strokeWidth=1;" parent="1" vertex="1">
          <mxGeometry x="240" y="1290" width="158" height="110" as="geometry" />
        </mxCell>
        <mxCell id="node4" value="&lt;p style=&quot;margin:0px;margin-top:4px;text-align:center;&quot;&gt;&lt;b&gt;EntradaSaida&lt;/b&gt;&lt;/p&gt;&lt;hr size=&quot;1&quot;/&gt;&lt;p style=&quot;margin:0 0 0 4px;line-height:1.6;&quot;&gt;+ EntradaSaida(): &lt;/p&gt;&lt;hr size=&quot;1&quot;/&gt;&lt;p style=&quot;margin:0 0 0 4px;line-height:1.6;&quot;&gt;+ solicitaInfoConta(Conta): void&lt;br/&gt;+ exibirDadosConta(Conta): void&lt;br/&gt;+ solicitaOpcoes(): Integer&lt;br/&gt;+ fazerSaque(Conta): void&lt;br/&gt;+ exibirSaldo(Conta): void&lt;br/&gt;+ exibirMovimentacoes(List&amp;lt;Movimentacao&amp;gt;): void&lt;br/&gt;- getTipoConta(): TipoConta&lt;br/&gt;- solicitaInformacoesMovimentacao(TipoMovimentacao): Movimentacao&lt;br/&gt;- getValor(String, String): Double&lt;br/&gt;+ fazerDeposito(Conta): void&lt;/p&gt;" style="verticalAlign=top;align=left;overflow=fill;fontSize=14;fontFamily=Helvetica;html=1;rounded=0;shadow=0;comic=0;labelBackgroundColor=none;strokeWidth=1;" parent="1" vertex="1">
          <mxGeometry x="-570" y="900" width="482" height="321" as="geometry" />
        </mxCell>
        <mxCell id="node0" value="&lt;p style=&quot;margin:0px;margin-top:4px;text-align:center;&quot;&gt;&lt;b&gt;Movimentacao&lt;/b&gt;&lt;/p&gt;&lt;hr size=&quot;1&quot;/&gt;&lt;p style=&quot;margin:0 0 0 4px;line-height:1.6;&quot;&gt;+ Movimentacao(): &lt;/p&gt;&lt;hr size=&quot;1&quot;/&gt;&lt;p style=&quot;margin:0 0 0 4px;line-height:1.6;&quot;&gt;- data: Date&lt;br/&gt;- valor: Double&lt;br/&gt;- tipo: TipoMovimentacao&lt;/p&gt;&lt;hr size=&quot;1&quot;/&gt;&lt;p style=&quot;margin:0 0 0 4px;line-height:1.6;&quot;&gt;+ getTipo(): TipoMovimentacao&lt;br/&gt;+ getValor(): Double&lt;br/&gt;+ getData(): Date&lt;br/&gt;+ setTipo(TipoMovimentacao): void&lt;br/&gt;+ setValor(Double): void&lt;br/&gt;+ setData(Date): void&lt;br/&gt;+ equals(Object): boolean&lt;br/&gt;# canEqual(Object): boolean&lt;br/&gt;+ hashCode(): int&lt;br/&gt;+ toString(): String&lt;/p&gt;" style="verticalAlign=top;align=left;overflow=fill;fontSize=14;fontFamily=Helvetica;html=1;rounded=0;shadow=0;comic=0;labelBackgroundColor=none;strokeWidth=1;" parent="1" vertex="1">
          <mxGeometry x="170" y="819" width="482" height="355" as="geometry" />
        </mxCell>
        <mxCell id="t9LdDsmCiVr-6Dxy6O7Q-1" style="edgeStyle=orthogonalEdgeStyle;rounded=0;orthogonalLoop=1;jettySize=auto;html=1;entryX=0.5;entryY=1;entryDx=0;entryDy=0;" edge="1" parent="1" source="node3" target="node2">
          <mxGeometry relative="1" as="geometry" />
        </mxCell>
        <mxCell id="t9LdDsmCiVr-6Dxy6O7Q-2" value="use" style="edgeStyle=orthogonalEdgeStyle;rounded=0;orthogonalLoop=1;jettySize=auto;html=1;" edge="1" parent="1" source="node3" target="node2">
          <mxGeometry relative="1" as="geometry" />
        </mxCell>
        <mxCell id="node3" value="&lt;p style=&quot;margin:0px;margin-top:4px;text-align:center;&quot;&gt;&lt;b&gt;Principal&lt;/b&gt;&lt;/p&gt;&lt;hr size=&quot;1&quot;/&gt;&lt;p style=&quot;margin:0 0 0 4px;line-height:1.6;&quot;&gt;+ Principal(): &lt;/p&gt;&lt;hr size=&quot;1&quot;/&gt;&lt;p style=&quot;margin:0 0 0 4px;line-height:1.6;&quot;&gt;+ main(String[]): void&lt;/p&gt;" style="verticalAlign=top;align=left;overflow=fill;fontSize=14;fontFamily=Helvetica;html=1;rounded=0;shadow=0;comic=0;labelBackgroundColor=none;strokeWidth=1;" parent="1" vertex="1">
          <mxGeometry x="237" y="1510" width="164" height="90" as="geometry" />
        </mxCell>
      </root>
    </mxGraphModel>
  </diagram>
</mxfile>
